<mxfile host="Electron" agent="Mozilla/5.0 (X11; Linux x86_64) AppleWebKit/537.36 (KHTML, like Gecko) draw.io/28.0.6 Chrome/138.0.7204.185 Electron/37.2.6 Safari/537.36" version="28.0.6">
  <diagram name="Page-1" id="X85E3G1szxH0JhdiORJy">
    <mxGraphModel dx="1426" dy="840" grid="1" gridSize="10" guides="1" tooltips="1" connect="1" arrows="1" fold="1" page="1" pageScale="1" pageWidth="850" pageHeight="1100" math="0" shadow="0">
      <root>
        <mxCell id="0" />
        <mxCell id="1" parent="0" />
        <mxCell id="9Z5AIpRs4NDyKX7JAnI_-1" value="v" style="rounded=0;whiteSpace=wrap;html=1;fillColor=#FFFFFF;strokeColor=none;strokeWidth=2;movable=0;resizable=0;rotatable=0;deletable=0;editable=0;locked=1;connectable=0;" vertex="1" parent="1">
          <mxGeometry x="380" y="360" width="670" height="640" as="geometry" />
        </mxCell>
        <mxCell id="9Z5AIpRs4NDyKX7JAnI_-4" value="" style="shape=mxgraph.cisco.computers_and_peripherals.pc;html=1;pointerEvents=1;dashed=0;fillColor=#036897;strokeColor=#000000;strokeWidth=2;verticalLabelPosition=bottom;verticalAlign=top;align=center;outlineConnect=0;perimeterSpacing=2;" vertex="1" parent="1">
          <mxGeometry x="440" y="890" width="100" height="100" as="geometry" />
        </mxCell>
        <mxCell id="9Z5AIpRs4NDyKX7JAnI_-5" value="" style="shape=mxgraph.cisco.computers_and_peripherals.pc;html=1;pointerEvents=1;dashed=0;fillColor=#036897;strokeColor=#000000;strokeWidth=2;verticalLabelPosition=bottom;verticalAlign=top;align=center;outlineConnect=0;perimeterSpacing=2;" vertex="1" parent="1">
          <mxGeometry x="880" y="890" width="100" height="100" as="geometry" />
        </mxCell>
        <mxCell id="9Z5AIpRs4NDyKX7JAnI_-7" value="" style="fontColor=#0066CC;verticalAlign=top;verticalLabelPosition=bottom;labelPosition=center;align=center;html=1;outlineConnect=0;fillColor=#0000CC;strokeColor=#000000;gradientColor=none;gradientDirection=north;strokeWidth=2;shape=mxgraph.networks.desktop_pc;perimeterSpacing=2;" vertex="1" parent="1">
          <mxGeometry x="680" y="660" width="90" height="120" as="geometry" />
        </mxCell>
        <mxCell id="9Z5AIpRs4NDyKX7JAnI_-16" value="&lt;font style=&quot;font-size: 16px;&quot;&gt;R1&lt;/font&gt;" style="text;html=1;align=center;verticalAlign=middle;whiteSpace=wrap;rounded=0;" vertex="1" parent="1">
          <mxGeometry x="446" y="904" width="80" height="40" as="geometry" />
        </mxCell>
        <mxCell id="9Z5AIpRs4NDyKX7JAnI_-17" value="&lt;font style=&quot;font-size: 16px;&quot;&gt;R3&lt;/font&gt;" style="text;html=1;align=center;verticalAlign=middle;whiteSpace=wrap;rounded=0;" vertex="1" parent="1">
          <mxGeometry x="887" y="904" width="80" height="40" as="geometry" />
        </mxCell>
        <mxCell id="9Z5AIpRs4NDyKX7JAnI_-19" value="&lt;span style=&quot;font-size: 16px;&quot;&gt;S1&lt;/span&gt;" style="text;html=1;align=center;verticalAlign=middle;whiteSpace=wrap;rounded=0;" vertex="1" parent="1">
          <mxGeometry x="685" y="680" width="80" height="40" as="geometry" />
        </mxCell>
        <mxCell id="9Z5AIpRs4NDyKX7JAnI_-23" value="" style="endArrow=none;html=1;rounded=0;entryX=0.02;entryY=0.98;entryDx=0;entryDy=0;entryPerimeter=0;exitX=0.5;exitY=0;exitDx=0;exitDy=0;exitPerimeter=0;strokeWidth=4;strokeColor=#000000;" edge="1" parent="1" source="9Z5AIpRs4NDyKX7JAnI_-4" target="9Z5AIpRs4NDyKX7JAnI_-7">
          <mxGeometry width="50" height="50" relative="1" as="geometry">
            <mxPoint x="510" y="820" as="sourcePoint" />
            <mxPoint x="560" y="770" as="targetPoint" />
          </mxGeometry>
        </mxCell>
        <mxCell id="9Z5AIpRs4NDyKX7JAnI_-24" value="" style="endArrow=none;html=1;rounded=0;entryX=0.5;entryY=0;entryDx=0;entryDy=0;entryPerimeter=0;exitX=0.98;exitY=0.98;exitDx=0;exitDy=0;exitPerimeter=0;strokeWidth=4;strokeColor=#000000;" edge="1" parent="1" source="9Z5AIpRs4NDyKX7JAnI_-7" target="9Z5AIpRs4NDyKX7JAnI_-5">
          <mxGeometry width="50" height="50" relative="1" as="geometry">
            <mxPoint x="690" y="988" as="sourcePoint" />
            <mxPoint x="880" y="880" as="targetPoint" />
          </mxGeometry>
        </mxCell>
        <mxCell id="9Z5AIpRs4NDyKX7JAnI_-25" value="" style="endArrow=none;html=1;rounded=0;exitX=0.5;exitY=0;exitDx=0;exitDy=0;exitPerimeter=0;strokeWidth=4;strokeColor=#000000;" edge="1" parent="1" source="9Z5AIpRs4NDyKX7JAnI_-7" target="9Z5AIpRs4NDyKX7JAnI_-3">
          <mxGeometry width="50" height="50" relative="1" as="geometry">
            <mxPoint x="890" y="718" as="sourcePoint" />
            <mxPoint x="1080" y="610" as="targetPoint" />
          </mxGeometry>
        </mxCell>
        <mxCell id="9Z5AIpRs4NDyKX7JAnI_-26" value="" style="group" vertex="1" connectable="0" parent="1">
          <mxGeometry x="675" y="380" width="100" height="100" as="geometry" />
        </mxCell>
        <mxCell id="9Z5AIpRs4NDyKX7JAnI_-3" value="" style="shape=mxgraph.cisco.computers_and_peripherals.pc;html=1;pointerEvents=1;dashed=0;fillColor=#036897;strokeColor=#000000;strokeWidth=2;verticalLabelPosition=bottom;verticalAlign=top;align=center;outlineConnect=0;perimeterSpacing=2;" vertex="1" parent="9Z5AIpRs4NDyKX7JAnI_-26">
          <mxGeometry width="100" height="100" as="geometry" />
        </mxCell>
        <mxCell id="9Z5AIpRs4NDyKX7JAnI_-15" value="&lt;font style=&quot;font-size: 16px;&quot;&gt;R2&lt;/font&gt;" style="text;html=1;align=center;verticalAlign=middle;whiteSpace=wrap;rounded=0;" vertex="1" parent="9Z5AIpRs4NDyKX7JAnI_-26">
          <mxGeometry x="6" y="14" width="80" height="40" as="geometry" />
        </mxCell>
        <mxCell id="9Z5AIpRs4NDyKX7JAnI_-27" value="&lt;font style=&quot;color: rgb(0, 0, 0);&quot;&gt;eth1&lt;/font&gt;&lt;div&gt;&lt;font style=&quot;color: rgb(0, 0, 0);&quot;&gt;10.0.4.1/24&lt;/font&gt;&lt;/div&gt;" style="text;html=1;align=center;verticalAlign=middle;whiteSpace=wrap;rounded=0;strokeColor=#000000;dashed=1;strokeWidth=1;perimeterSpacing=0;" vertex="1" parent="1">
          <mxGeometry x="425" y="850" width="70" height="30" as="geometry" />
        </mxCell>
        <mxCell id="9Z5AIpRs4NDyKX7JAnI_-29" value="&lt;font style=&quot;color: rgb(0, 0, 0);&quot;&gt;eth1&lt;/font&gt;" style="text;html=1;align=center;verticalAlign=middle;whiteSpace=wrap;rounded=0;strokeColor=#000000;dashed=1;strokeWidth=1;perimeterSpacing=0;" vertex="1" parent="1">
          <mxGeometry x="625" y="747" width="50" height="30" as="geometry" />
        </mxCell>
        <mxCell id="9Z5AIpRs4NDyKX7JAnI_-30" value="&lt;font style=&quot;color: rgb(0, 0, 0);&quot;&gt;vlan8@eth1&lt;/font&gt;&lt;div&gt;&lt;font style=&quot;color: rgb(0, 0, 0);&quot;&gt;10.0.8.254/24&lt;/font&gt;&lt;/div&gt;" style="text;html=1;align=center;verticalAlign=middle;whiteSpace=wrap;rounded=0;strokeColor=#000000;dashed=1;strokeWidth=1;perimeterSpacing=0;" vertex="1" parent="1">
          <mxGeometry x="732" y="484" width="80" height="30" as="geometry" />
        </mxCell>
        <mxCell id="9Z5AIpRs4NDyKX7JAnI_-31" value="&lt;font style=&quot;color: rgb(0, 0, 0);&quot;&gt;vlan4@eth1&lt;/font&gt;&lt;div&gt;&lt;font style=&quot;color: rgb(0, 0, 0);&quot;&gt;10.0.4.254/24&lt;/font&gt;&lt;/div&gt;" style="text;html=1;align=center;verticalAlign=middle;whiteSpace=wrap;rounded=0;strokeColor=#000000;dashed=1;strokeWidth=1;perimeterSpacing=0;" vertex="1" parent="1">
          <mxGeometry x="636" y="484" width="80" height="30" as="geometry" />
        </mxCell>
        <mxCell id="9Z5AIpRs4NDyKX7JAnI_-32" value="&lt;font style=&quot;color: rgb(0, 0, 0);&quot;&gt;eth2&lt;/font&gt;" style="text;html=1;align=center;verticalAlign=middle;whiteSpace=wrap;rounded=0;strokeColor=#000000;dashed=1;strokeWidth=1;perimeterSpacing=0;" vertex="1" parent="1">
          <mxGeometry x="670" y="623" width="50" height="30" as="geometry" />
        </mxCell>
        <mxCell id="9Z5AIpRs4NDyKX7JAnI_-33" value="&lt;font style=&quot;color: rgb(0, 0, 0);&quot;&gt;eth3&lt;/font&gt;" style="text;html=1;align=center;verticalAlign=middle;whiteSpace=wrap;rounded=0;strokeColor=#000000;dashed=1;strokeWidth=1;perimeterSpacing=0;" vertex="1" parent="1">
          <mxGeometry x="774" y="748" width="50" height="30" as="geometry" />
        </mxCell>
        <mxCell id="9Z5AIpRs4NDyKX7JAnI_-36" value="&lt;font style=&quot;color: rgb(0, 0, 0);&quot;&gt;eth1&lt;/font&gt;&lt;div&gt;&lt;font style=&quot;color: rgb(0, 0, 0);&quot;&gt;10.0.8.1/24&lt;/font&gt;&lt;/div&gt;" style="text;html=1;align=center;verticalAlign=middle;whiteSpace=wrap;rounded=0;strokeColor=#000000;dashed=1;strokeWidth=1;perimeterSpacing=0;" vertex="1" parent="1">
          <mxGeometry x="930" y="850" width="70" height="30" as="geometry" />
        </mxCell>
      </root>
    </mxGraphModel>
  </diagram>
</mxfile>
